<?xml version="1.0" encoding="UTF-8" standalone="no"?>
<!-- Created with Inkscape (http://www.inkscape.org/) -->

<svg
   version="1.1"
   id="svg2"
   width="699.91998"
   height="105.08"
   viewBox="0 0 699.91998 105.08"
   xmlns="http://www.w3.org/2000/svg"
   xmlns:svg="http://www.w3.org/2000/svg">
  <defs
     id="defs6" />
  <g
     id="g10"
     transform="matrix(1.3333333,0,0,-1.3333333,0,105.08)">
    <g
       id="g12"
       transform="scale(0.1)">
      <path
         d="M 0,220.25 H 567.828 V 788.082 H 0 V 220.25"
         style="fill:#231f20;fill-opacity:1;fill-rule:nonzero;stroke:none"
         id="path14" />
      <path
         d="m 240.746,626.582 42.832,42.832 42.824,-42.832 23.7,23.703 -42.809,42.844 42.809,42.809 -23.7,23.703 -42.824,-42.809 -42.832,42.809 -23.695,-23.703 42.824,-42.809 -42.824,-42.844 23.695,-23.703"
         style="fill:#ffffff;fill-opacity:1;fill-rule:nonzero;stroke:none"
         id="path16" />
      <path
         d="m 240.746,468.969 42.832,42.828 42.824,-42.828 23.7,23.699 -42.809,42.852 42.809,42.804 -23.7,23.699 -42.824,-42.808 -42.832,42.808 -23.695,-23.699 42.824,-42.804 -42.824,-42.852 23.695,-23.699"
         style="fill:#ffffff;fill-opacity:1;fill-rule:nonzero;stroke:none"
         id="path18" />
      <path
         d="m 240.746,249.609 42.832,42.829 42.824,-42.829 23.7,23.696 -42.809,42.851 42.809,42.809 -23.7,23.695 -42.824,-42.805 -42.832,42.805 -23.695,-23.695 42.824,-42.809 -42.824,-42.851 23.695,-23.696"
         style="fill:#ffffff;fill-opacity:1;fill-rule:nonzero;stroke:none"
         id="path20" />
      <path
         d="m 412.48,627.207 -49.281,-2.262 c 0,0 7.031,-52.019 4.071,-104.59 C 364.402,470.18 356.488,461.344 356.488,461.344 345.352,440.449 310.879,435.363 293.27,434 c -17.692,-1.383 -25.582,-0.422 -25.582,-0.422 0,0 -50.864,1.965 -62.258,25.641 -6.492,13.48 -7.871,39.965 -7.871,39.965 0,0 -0.305,124.097 -0.746,126.906 -0.301,1.504 -10.297,-1.086 -21.875,-1.02 -9.438,0.02 -23.235,0.637 -23.235,0.637 l 4.086,-91.164 -0.562,-53.867 c 0,0 0,-28.906 7.414,-40.446 12.519,-19.57 26.461,-26.562 34.355,-30.269 7.891,-3.746 20.453,-7.469 34.395,-10.254 13.922,-2.828 37.195,-4.246 67.828,3.606 30.668,7.914 44.23,21.816 44.23,21.816 l 23.258,21.836 -0.082,-51.629 48.816,14.367 c 0,0 -6.449,40.902 -6.367,110.613 0.059,69.735 3.406,106.891 3.406,106.891"
         style="fill:#ffffff;fill-opacity:1;fill-rule:nonzero;stroke:none"
         id="path22" />
      <path
         d="m 793.109,146.121 c -0.472,-24.949 1.172,-40.348 4.93,-46.1991 2.383,-3.0469 6.016,-5.0391 10.895,-5.9766 4.879,-1.289 11.347,-2.168 19.406,-2.6367 l 1.867,-2.4883 v -6.9531 c -0.797,-1.6641 -3.633,-2.4922 -8.512,-2.4922 -2.953,0.2344 -8.742,0.5977 -17.371,1.0664 -8.851,0.4766 -17.191,0.7188 -25.027,0.7188 -16.574,-0.2422 -33.945,-0.836 -52.106,-1.7852 -1.136,0.7148 -1.707,2.9102 -1.707,6.5938 0.231,2.371 0.914,3.914 2.051,4.6289 1.481,0.4765 4.555,0.7109 9.223,0.7109 11.605,-0.2344 18.941,1.9336 22.019,6.5039 1.59,2.4605 2.5,5.8475 2.735,10.1835 0.222,3.988 0.336,9.375 0.336,16.164 v 171.985 c 0.234,10.308 -1.868,17.214 -6.313,20.73 -4.898,3.164 -14.566,4.746 -29.019,4.746 l -1.024,1.746 -0.683,5.805 c 0.906,3.152 2.777,4.617 5.621,4.383 4.652,0 10.324,-0.293 17.023,-0.879 6.582,-0.703 15.664,-1.055 27.246,-1.055 19.297,0.469 36.719,1.113 52.278,1.934 l 1.703,-2.442 v -6.629 l -1.364,-2.148 -9.359,-0.715 c -7.039,0 -12.883,-1.23 -17.527,-3.691 -4.883,-2.11 -7.321,-7.266 -7.321,-15.457 V 146.121"
         style="fill:#231f20;fill-opacity:1;fill-rule:nonzero;stroke:none"
         id="path24" />
      <path
         d="m 878.398,200.098 c -0.226,6.933 -2.433,10.871 -6.617,11.808 l -11.543,2.996 c -1.359,0.235 -2.039,1.536 -2.039,3.879 -0.238,1.746 0.457,3.086 2.078,4.024 9.453,3.015 18.793,6.679 28.016,10.965 8.996,4.296 14.297,6.562 15.914,6.796 1.055,-0.468 1.582,-1.867 1.582,-4.187 v -24.824 c 8.305,7.226 17.125,13.808 26.461,19.746 9.328,5.945 19.57,9.031 30.723,9.265 29.144,-0.468 43.597,-16.425 43.367,-47.871 v -88.007 c 0,-7.1567 2.54,-11.6138 7.62,-13.3677 2.15,-0.9492 4.57,-1.5351 7.29,-1.7695 2.6,-0.2344 5.31,-0.3516 8.13,-0.3516 0.91,0 1.36,-0.8008 1.36,-2.414 v -6.375 c 0,-0.6914 -0.58,-1.0352 -1.72,-1.0352 -12.93,0.4609 -24.55,1.0352 -34.848,1.7305 -6.067,0 -12.305,-0.2383 -18.715,-0.6953 -6.293,-0.461 -12.59,-0.8008 -18.883,-1.0352 -1.035,0.2344 -1.777,1.3789 -2.234,3.4492 -0.231,1.9531 -0.344,3.3867 -0.344,4.3164 0,1.1407 1.184,1.836 3.539,2.0586 3.485,-0.2344 7.867,0.2344 13.153,1.418 5.277,1.2891 8.031,4.4609 8.253,9.5198 v 84.797 c 0,11.289 -1.961,20.039 -5.894,26.265 -4.609,5.766 -12.922,8.645 -24.949,8.645 -7.305,-0.235 -14.891,-2 -22.758,-5.293 -7.754,-3.875 -14.274,-8.582 -19.551,-14.102 v -93.965 c 0,-1.882 0.219,-3.769 0.668,-5.644 0.231,-2.2345 1.012,-4.1798 2.363,-5.8205 1.575,-1.414 4.102,-2.7617 7.582,-4.0507 3.039,-1.1836 7.422,-1.7696 13.153,-1.7696 0.449,-0.2226 0.672,-1.8945 0.672,-5 0,-3.2109 -0.34,-4.8242 -1.024,-4.8242 -15.199,0.4609 -27.367,1.0352 -36.512,1.7305 -6.281,0 -12.625,-0.2383 -19.027,-0.6953 -6.281,-0.461 -12.566,-0.8008 -18.851,-1.0352 -2.407,0.2344 -3.493,1.0352 -3.258,2.4102 v 3.2734 c 0,2.0703 0.457,3.3398 1.359,3.8008 0.789,0.2226 2.324,0.3398 4.59,0.3398 7.699,-0.2344 13.133,1.0039 16.309,3.7031 3.054,2.3516 4.585,7.5277 4.585,15.5157 v 91.68"
         style="fill:#231f20;fill-opacity:1;fill-rule:nonzero;stroke:none"
         id="path26" />
      <path
         d="m 1072.82,219.492 h -26.89 c -1.82,2.656 -2.62,5.899 -2.38,9.727 0,3.008 0.68,4.863 2.04,5.558 1.48,0.575 4.2,0.868 8.17,0.868 h 19.06 v 30.234 c 0,22.734 5.16,43.711 15.49,62.93 5.39,9.609 12.1,17.285 20.14,23.027 7.79,5.977 17.09,8.965 27.88,8.965 5.39,0 10.32,-1.055 14.8,-3.164 4.24,-2.461 6.48,-6.563 6.71,-12.293 0,-3.867 -1.08,-7.09 -3.24,-9.668 -2.5,-3.164 -5.51,-4.746 -9.04,-4.746 -1.59,0 -3.47,0.703 -5.63,2.105 -2.04,1.289 -4.37,2.641 -6.99,4.055 -4.89,3.633 -9.88,5.566 -15,5.801 -8.3,-0.469 -13.3,-5.633 -15,-15.481 -2.06,-9.375 -2.97,-17.808 -2.73,-25.308 v -66.457 h 40.42 c 1.02,-0.352 1.54,-0.985 1.54,-1.915 v -6.765 c 0,-3.242 -0.52,-5.332 -1.54,-6.262 -1.13,-1.043 -2.27,-1.445 -3.41,-1.211 h -37.01 V 109.824 c -0.24,-8.926 1.36,-14.6873 4.78,-17.2732 3.53,-2.461 11.26,-3.586 23.21,-3.3516 1.36,-0.2226 2.05,-0.9179 2.05,-2.0586 v -1.3867 c 0,-4.0234 -0.35,-6.1445 -1.04,-6.3789 -2.63,0.2344 -8.43,0.5742 -17.37,1.0352 -9.06,0.457 -17.03,0.6953 -23.91,0.6953 -13.88,-0.2383 -27.87,-0.8125 -41.97,-1.7305 -1.15,0.6953 -1.84,2.0703 -2.07,4.1406 -0.23,3.3321 0.45,5.2266 2.05,5.6836 11.9,0 19.51,1.3594 22.8,4.0547 2.95,2.5859 4.31,8.6991 4.08,18.3401 v 107.898"
         style="fill:#231f20;fill-opacity:1;fill-rule:nonzero;stroke:none"
         id="path28" />
      <path
         d="m 1295.54,148.379 c 0,9.133 -0.8,18.496 -2.38,28.098 -1.6,9.011 -4.49,17.617 -8.7,25.808 -3.97,7.969 -9.49,14.348 -16.53,19.153 -7.16,4.792 -16.08,7.195 -26.76,7.195 -17.28,-0.235 -29.27,-7.324 -35.97,-21.25 -6.83,-13.699 -10.12,-29.559 -9.88,-47.586 0,-16.75 4.31,-32.902 12.95,-48.469 4.66,-7.137 10.28,-12.9999 16.87,-17.5663 6.25,-5.0312 13.81,-7.5508 22.68,-7.5508 16.92,0.2344 29.25,6.7969 36.98,19.6681 7.16,12.297 10.74,26.457 10.74,42.5 z m -131.48,6.496 c 0.23,24.754 8.73,45.164 25.5,61.23 15.99,16.075 35.83,24.227 59.53,24.461 21.53,-0.468 39.73,-8.496 54.58,-24.082 14.85,-15.351 22.56,-34.218 23.13,-56.601 -0.57,-26.133 -9.3,-46.758 -26.19,-61.8752 -16.78,-15.5859 -37.07,-23.4961 -60.88,-23.7305 -21.43,0.4688 -39.22,8.4883 -53.39,24.0508 -14.63,15.1099 -22.05,33.9569 -22.28,56.5469"
         style="fill:#231f20;fill-opacity:1;fill-rule:nonzero;stroke:none"
         id="path30" />
      <path
         d="m 1404.5,117.371 c 0,-3.629 0.23,-7.039 0.69,-10.211 0.22,-3.281 1.14,-6.281 2.73,-8.9764 1.59,-2.5859 4.28,-4.6367 8.04,-6.1602 3.53,-1.8867 8.54,-2.8242 15.03,-2.8242 1.71,0 2.57,-1.6601 2.57,-5 0.23,-3.2109 -0.74,-4.8242 -2.93,-4.8242 -5.85,0.2344 -11.81,0.5742 -17.9,1.0352 -6.42,0.457 -12.79,0.6953 -19.1,0.6953 -6.54,0 -13.25,-0.2383 -20.14,-0.6953 -6.99,-0.461 -13.88,-0.8008 -20.65,-1.0352 -1.26,0 -1.78,0.918 -1.55,2.7656 v 3.2696 c 0,1.6132 0.51,2.7656 1.54,3.457 0.9,0.6953 2.93,0.918 6.11,0.6836 7.47,0.4687 12.51,2.6484 15.12,6.5156 2.04,3.4063 3.05,9.9106 3.05,19.5386 v 79.915 c 0,6.804 -3.45,11.257 -10.35,13.378 -1.02,0.235 -2.89,1.051 -5.6,2.461 -3.06,1.289 -4.7,3.114 -4.93,5.457 -0.24,1.875 1.44,3.575 5.02,5.11 l 26.13,12.137 c 8.3,4.101 13.26,6.269 14.87,6.503 1.97,-0.234 2.96,-1.289 2.96,-3.164 l -0.71,-37.089 0.78,-0.704 c 2.73,4.102 5.85,8.555 9.37,13.36 3.52,4.453 7.27,8.73 11.24,12.832 8.06,9.375 17.32,14.297 27.77,14.765 13.05,0 19.7,-6.445 19.93,-19.324 -0.23,-3.867 -1.6,-7.148 -4.1,-9.844 -2.84,-2.812 -6.25,-4.21 -10.23,-4.21 -4.21,0 -7.91,1.171 -11.09,3.507 -3.3,1.754 -7.39,2.754 -12.28,2.989 -4.21,-0.235 -8.65,-2.539 -13.3,-6.907 -4.9,-4.609 -9.22,-9.453 -12.97,-14.531 l -5.12,-6.855 v -68.02"
         style="fill:#231f20;fill-opacity:1;fill-rule:nonzero;stroke:none"
         id="path32" />
      <path
         d="m 1534.41,107.715 c -0.24,-8.2306 1.06,-13.2814 3.87,-15.1642 2.93,-2.2383 8.97,-3.3516 18.11,-3.3516 0.47,-0.2226 0.71,-1.2578 0.71,-3.1054 v -2.5782 c 0,-2.7617 -0.41,-4.1406 -1.22,-4.1406 -3.94,0.2344 -8.92,0.5742 -14.95,1.0352 -6.14,0.457 -12.28,0.6953 -18.42,0.6953 -4.99,0 -11.54,-0.2383 -19.65,-0.6953 -7.99,-0.461 -14.02,-0.8008 -18.08,-1.0352 -1.38,0 -2.08,0.6953 -2.08,2.0703 v 6.0352 c 0,0.9179 0.56,1.4961 1.7,1.7187 h 3.4 c 7.02,0 12,1.3594 14.94,4.0547 2.83,2.3516 4.25,7.0001 4.25,13.9341 v 92.91 c 0,3.047 -0.45,5.695 -1.36,7.929 -1.47,2.121 -3.22,3.411 -5.26,3.879 l -11.54,2.996 c -1.13,0.461 -1.82,1.836 -2.04,4.121 0,1.719 0.69,2.93 2.08,3.614 15,5.273 29.95,11.25 44.84,17.929 0.93,0 1.52,-1.394 1.76,-4.187 -0.24,-8.625 -0.59,-16.25 -1.06,-22.883 8.56,6.164 17.64,12.109 27.25,17.813 9.38,5.937 19.22,9.023 29.53,9.257 19.46,0 33.88,-10.253 43.26,-30.769 9.37,7.918 18.86,14.969 28.48,21.152 9.61,6.18 19.57,9.383 29.89,9.617 15.82,-0.234 27.18,-4.812 34.1,-13.73 7.03,-8.801 10.55,-20.176 10.55,-34.141 v -88.007 c 0,-7.1567 2.57,-11.6138 7.71,-13.3677 2.05,-0.9492 4.51,-1.5351 7.36,-1.7695 2.74,-0.2344 5.54,-0.3516 8.4,-0.3516 0.68,0 1.02,-0.9179 1.02,-2.7539 v -4.6601 c -0.23,-1.375 -0.93,-2.1758 -2.09,-2.4102 -5.7,0.2344 -11.45,0.5742 -17.26,1.0352 -5.93,0.457 -11.85,0.6953 -17.78,0.6953 -5.93,0 -11.97,-0.2383 -18.13,-0.6953 -6.28,-0.461 -12.61,-0.8008 -19,-1.0352 -1.16,0.2344 -1.74,0.918 -1.74,2.0703 v 4.3086 c 0,2.0703 0.58,3.2227 1.75,3.4453 6.45,-0.2344 11.73,0.4688 15.83,2.1211 4.1,1.5235 6.27,5.7578 6.51,12.6957 v 88.144 c -0.24,9.871 -3.69,17.098 -10.38,21.688 -6.8,3.996 -14.01,5.996 -21.63,5.996 -6.56,-0.235 -13.77,-2.352 -21.63,-6.348 -7.97,-4.121 -14.83,-9.285 -20.57,-15.516 v -93.261 c -0.24,-4.348 0.58,-7.8127 2.46,-10.4026 1.76,-2.9375 5.39,-4.5312 10.9,-4.7656 l 10.38,-0.3516 c 0.46,-0.457 0.81,-2.4687 1.05,-6.0351 0,-2.0586 -0.59,-3.3282 -1.76,-3.7891 -5.74,0.2344 -11.48,0.5742 -17.22,1.0352 -5.74,0.457 -11.78,0.6953 -18.1,0.6953 -5.98,0 -12.07,-0.2383 -18.28,-0.6953 -6.21,-0.461 -12.54,-0.8008 -18.98,-1.0352 -1.29,0.2344 -1.94,0.918 -1.94,2.0703 v 4.3086 c 0,2.0703 0.65,3.2227 1.94,3.4453 6.45,-0.2344 11.72,0.4688 15.83,2.1211 3.98,1.5235 6.09,5.7578 6.33,12.6957 v 80.918 c -0.24,11.289 -3.46,20.039 -9.68,26.265 -6.44,5.766 -13.89,8.645 -22.33,8.645 -10.32,-0.235 -18.58,-2 -24.8,-5.293 -6.21,-3.875 -11.95,-8.582 -17.23,-14.102 v -92.734"
         style="fill:#231f20;fill-opacity:1;fill-rule:nonzero;stroke:none"
         id="path34" />
      <path
         d="m 1863,154.941 -34.78,-16.171 c -2.74,-1.29 -6.22,-3.34 -10.45,-6.153 -4.45,-3.398 -6.8,-7.5 -7.02,-12.304 0,-5.274 1.43,-11.016 4.28,-17.227 2.29,-6.9141 6.22,-10.5469 11.82,-10.8985 6.4,0.3516 12.39,2.8711 17.99,7.5586 5.82,4.5699 10.85,9.1409 15.08,13.7109 l 3.08,3.34 z m 0.34,27.344 c 0.23,10.457 -1.14,18.926 -4.12,25.403 -1.71,3.289 -4.57,5.808 -8.57,7.578 -3.66,1.406 -8.81,2.117 -15.44,2.117 -5.14,0 -10.74,-0.828 -16.8,-2.473 -2.75,-0.945 -5.09,-2.293 -7.04,-4.058 -2.06,-1.641 -3.08,-3.938 -3.08,-6.875 0,-2.825 0.57,-5.586 1.71,-8.293 l -21.8,-13.047 c -1.35,2.929 -2.03,6.562 -2.03,10.89 0,5.965 2.21,11.121 6.64,15.457 4.08,4.09 7.99,7.2 11.73,9.309 l 31.3,18.785 c 3.97,2.328 6.41,3.488 7.32,3.488 29.03,0 43.71,-14.668 44.05,-44.003 v -76.395 c -0.35,-4.102 0.1,-8.801 1.37,-14.082 1.13,-5.512 4.37,-8.3907 9.71,-8.6251 3.29,0 5.74,0.8907 7.33,2.6481 1.59,1.649 3.35,4.286 5.28,7.938 l 6.65,-2.625 c -2.15,-8.5157 -5.43,-15.8126 -9.83,-21.8673 -4.4,-5.957 -10.39,-9.043 -17.96,-9.2774 -5.76,0 -10.39,1.3477 -13.89,4.043 -3.5,2.3438 -6.04,5.2149 -7.62,8.6133 -3.06,7.6172 -4.47,13.9454 -4.24,18.9964 -6.71,-7.1605 -14.28,-14.0745 -22.7,-20.7542 -8.65,-7.0313 -18.2,-10.6641 -28.67,-10.8985 -4.89,0.2344 -9.33,1.8165 -13.31,4.7579 -3.64,3.0429 -6.77,6.7382 -9.39,11.082 -5.35,9.6211 -8.02,18.7698 -8.02,27.4528 -0.24,3.399 2.21,7.625 7.34,12.664 2.84,2.59 6.6,5.34 11.27,8.282 4.43,2.578 10.12,5.332 17.07,8.261 l 45.74,18.313 v 17.195"
         style="fill:#231f20;fill-opacity:1;fill-rule:nonzero;stroke:none"
         id="path36" />
      <path
         d="m 1951.58,207.324 c 0,5.762 -1.25,9.231 -3.77,10.403 -2.86,0.933 -7.2,1.414 -13.03,1.414 -1.6,0 -2.97,0.234 -4.11,0.695 -1.49,0.82 -2.23,2.156 -2.23,4.031 0,1.867 0.86,3.555 2.6,5.078 1.39,1.399 3.02,2.688 4.87,3.848 6.49,4.785 13.61,10.508 21.38,17.156 7.64,6.543 13.96,12.551 18.94,18.039 3.02,0 4.53,-1.347 4.53,-4.043 -0.23,-9.609 -0.59,-19.043 -1.05,-28.3 h 43.94 c 2.16,0 3.46,-0.411 3.92,-1.219 0.22,-0.93 0.34,-3.184 0.34,-6.77 0,-3.242 -0.12,-5.332 -0.34,-6.258 -0.69,-1.269 -1.88,-1.906 -3.58,-1.906 h -45.01 V 124.98 c -0.24,-7.996 1.3,-14.871 4.6,-20.632 2.96,-6.2308 8.63,-9.348 17.05,-9.348 6.02,0 11.14,1.8242 15.34,5.469 4.2,3.293 7.33,7.59 9.37,12.871 l 5.98,-4.902 c -2.76,-9.8169 -7.82,-17.9888 -15.16,-24.52 -7,-6.1914 -15.9,-9.4063 -26.69,-9.6407 -9.87,0 -18.6,2.7461 -26.18,8.2227 -7.57,5.4805 -11.48,13.5859 -11.71,24.316 v 100.508"
         style="fill:#231f20;fill-opacity:1;fill-rule:nonzero;stroke:none"
         id="path38" />
      <path
         d="m 2061.6,327.316 c 0,5.946 1.99,10.719 5.97,14.336 3.75,3.731 8.29,5.594 13.63,5.594 5.79,0 10.45,-1.863 13.97,-5.594 3.64,-3.617 5.46,-8.39 5.46,-14.336 0,-5.48 -1.82,-10.148 -5.46,-13.996 -3.52,-4.082 -8.18,-6.113 -13.97,-6.113 -5.34,0 -9.88,2.031 -13.63,6.113 -3.98,3.848 -5.97,8.516 -5.97,13.996 z m 33.75,-220.839 c 0,-1.887 0.23,-3.762 0.69,-5.649 0.22,-2.2225 1.02,-4.1678 2.39,-5.8085 1.59,-1.414 4.16,-2.7617 7.7,-4.0507 3.07,-1.1836 7.52,-1.7696 13.34,-1.7696 0.45,-0.2226 0.68,-1.8945 0.68,-5 0,-3.2109 -0.35,-4.8242 -1.04,-4.8242 -15.26,0.4609 -27.49,1.0352 -36.67,1.7305 -6.31,0 -12.68,-0.2383 -19.11,-0.6953 -6.31,-0.461 -12.62,-0.8008 -18.94,-1.0352 -2.41,0.2344 -3.5,1.0352 -3.27,2.4102 v 3.2734 c 0,2.0703 0.46,3.3398 1.36,3.8008 0.79,0.2226 2.32,0.3398 4.59,0.3398 7.7,-0.2344 13.13,0.9961 16.31,3.7031 3.05,2.3399 4.58,7.5077 4.58,15.4887 v 74.129 c 0,11.14 -0.45,18.359 -1.36,21.652 -1.47,3.172 -5.54,5.926 -12.22,8.277 -2.5,1.293 -4.7,2.406 -6.63,3.344 -2.26,0.937 -3.39,2.109 -3.39,3.523 -0.7,1.993 5.29,5.274 17.98,9.856 l 25.92,9.687 c 1.62,0.907 3.34,1.473 5.19,1.707 1.5,0 2.37,-0.586 2.61,-1.757 0,-1.407 0,-2.754 0,-4.032 -0.24,-17.218 -0.48,-34.601 -0.71,-52.16 v -76.14"
         style="fill:#231f20;fill-opacity:1;fill-rule:nonzero;stroke:none"
         id="path40" />
      <path
         d="m 2271.22,118.391 c -7.5,-11.672 -16.47,-21.8285 -26.91,-30.4613 -10.67,-8.8672 -23.22,-13.418 -37.65,-13.6524 -21.41,0.4688 -38.04,8.379 -49.9,23.7305 -12.2,14.6482 -18.3,32.7542 -18.3,54.3162 0.22,23.789 8.06,44.356 23.51,61.699 14.98,17.227 34.08,26.075 57.3,26.543 8.92,0 18.76,-2.175 29.51,-6.531 10.75,-4.816 16.36,-12.637 16.82,-23.469 -0.23,-4.355 -1.59,-7.703 -4.09,-10.046 -3.07,-2.715 -6.6,-4.067 -10.57,-4.067 -3.76,0 -7,1.82 -9.73,5.453 -2.84,3.164 -5.62,6.793 -8.35,10.899 -2.61,3.98 -5.68,7.683 -9.21,11.082 -3.64,3.164 -8.24,4.746 -13.81,4.746 -6.59,0 -12.56,-1.699 -17.9,-5.098 -5.57,-3.64 -10.35,-8.445 -14.33,-14.422 -7.84,-12.422 -11.76,-25.371 -11.76,-38.859 0,-16.758 4.37,-32.703 13.12,-47.82 4.67,-7.266 10.29,-13.188 16.89,-17.754 6.25,-4.8167 13.81,-7.2191 22.68,-7.2191 10.68,0 19.77,2.8711 27.28,8.6251 7.16,5.273 13.87,12.012 20.12,20.215 l 5.28,-7.91"
         style="fill:#231f20;fill-opacity:1;fill-rule:nonzero;stroke:none"
         id="path42" />
      <path
         d="m 2390.05,195.762 h -8.66 c -1.8,8.437 -5.01,15.996 -9.62,22.676 -4.61,6.562 -11.54,9.96 -20.77,10.195 -8.1,0 -14.79,-1.934 -20.08,-5.801 -5.52,-4.09 -8.27,-10.477 -8.27,-19.141 0,-3.281 1.19,-6.375 3.58,-9.304 2.04,-2.922 4.83,-5.676 8.35,-8.254 3.41,-2.461 7.21,-4.973 11.42,-7.547 4.2,-2.461 8.64,-5.098 13.3,-7.902 9.77,-5.274 18.3,-11.414 25.57,-18.438 7.15,-7.137 10.85,-16.219 11.08,-27.215 -0.23,-15.578 -6.03,-27.8044 -17.42,-36.7029 -10.93,-9.1289 -23.91,-13.8164 -38.94,-14.0508 -11.61,0.2344 -21.86,2.2852 -30.73,6.1524 -8.89,3.6328 -13.67,6.9726 -14.35,10.0117 l -1.67,32.8596 9.76,1.054 c 1.2,-1.992 2.03,-4.277 2.47,-6.855 2.26,-7.734 6.66,-14.707 13.2,-20.918 6.44,-6.6797 13.61,-10.1367 21.51,-10.3711 18.62,0.2344 28.22,10.1954 28.78,29.8941 -0.33,6.211 -3.24,12.071 -8.73,17.579 -5.48,5.269 -10.74,9.14 -15.77,11.601 -4.81,2.813 -9.85,5.801 -15.11,8.965 -5.26,2.813 -10.18,6.152 -14.77,10.02 -4.59,4.097 -8.28,8.671 -11.08,13.71 -2.91,5.04 -4.36,10.899 -4.36,17.579 0.23,15.117 5.75,26.433 16.58,33.933 10.38,7.383 22.39,11.074 36.05,11.074 14.09,0 27.74,-3.742 40.94,-11.218 l -2.26,-33.586"
         style="fill:#231f20;fill-opacity:1;fill-rule:nonzero;stroke:none"
         id="path44" />
      <path
         d="m 2576.67,146.121 c -0.48,-24.949 1.17,-40.348 4.93,-46.1991 2.38,-3.0469 6.02,-5.0391 10.89,-5.9766 4.88,-1.289 11.35,-2.168 19.41,-2.6367 l 1.87,-2.4883 v -6.9531 c -0.8,-1.6641 -3.64,-2.4922 -8.51,-2.4922 -2.96,0.2344 -8.75,0.5977 -17.38,1.0664 -8.85,0.4766 -17.19,0.7188 -25.03,0.7188 -16.57,-0.2422 -33.94,-0.836 -52.1,-1.7852 -1.14,0.7148 -1.7,2.9102 -1.7,6.5938 0.23,2.371 0.91,3.914 2.05,4.6289 1.48,0.4765 4.55,0.7109 9.22,0.7109 11.6,-0.2344 18.94,1.9336 22.02,6.5039 1.59,2.4605 2.5,5.8475 2.73,10.1835 0.23,3.988 0.34,9.375 0.34,16.164 v 171.985 c 0.23,10.308 -1.87,17.214 -6.32,20.73 -4.89,3.164 -14.56,4.746 -29.01,4.746 l -1.03,1.746 -0.68,5.805 c 0.91,3.152 2.78,4.617 5.62,4.383 4.65,0 10.32,-0.293 17.02,-0.879 6.59,-0.703 15.67,-1.055 27.25,-1.055 19.3,0.469 36.72,1.113 52.28,1.934 l 1.7,-2.442 v -6.629 l -1.36,-2.148 -9.36,-0.715 c -7.04,0 -12.88,-1.23 -17.53,-3.691 -4.89,-2.11 -7.32,-7.266 -7.32,-15.457 V 146.121"
         style="fill:#231f20;fill-opacity:1;fill-rule:nonzero;stroke:none"
         id="path46" />
      <path
         d="m 2661.96,200.098 c -0.22,6.933 -2.43,10.871 -6.62,11.808 l -11.54,2.996 c -1.36,0.235 -2.03,1.536 -2.03,3.879 -0.24,1.746 0.45,3.086 2.07,4.024 9.45,3.015 18.79,6.679 28.02,10.965 8.99,4.296 14.3,6.562 15.91,6.796 1.06,-0.468 1.58,-1.867 1.58,-4.187 v -24.824 c 8.31,7.226 17.13,13.808 26.46,19.746 9.33,5.945 19.57,9.031 30.73,9.265 29.14,-0.468 43.59,-16.425 43.36,-47.871 v -88.007 c 0,-7.1567 2.54,-11.6138 7.63,-13.3677 2.14,-0.9492 4.57,-1.5351 7.28,-1.7695 2.6,-0.2344 5.32,-0.3516 8.14,-0.3516 0.9,0 1.35,-0.8008 1.35,-2.414 v -6.375 c 0,-0.6914 -0.57,-1.0352 -1.71,-1.0352 -12.93,0.4609 -24.55,1.0352 -34.85,1.7305 -6.07,0 -12.31,-0.2383 -18.72,-0.6953 -6.29,-0.461 -12.59,-0.8008 -18.88,-1.0352 -1.04,0.2344 -1.78,1.3789 -2.24,3.4492 -0.23,1.9531 -0.34,3.3867 -0.34,4.3164 0,1.1407 1.18,1.836 3.54,2.0586 3.48,-0.2344 7.87,0.2344 13.15,1.418 5.28,1.2891 8.03,4.4609 8.26,9.5198 v 84.797 c 0,11.289 -1.96,20.039 -5.9,26.265 -4.61,5.766 -12.92,8.645 -24.95,8.645 -7.3,-0.235 -14.89,-2 -22.76,-5.293 -7.75,-3.875 -14.27,-8.582 -19.55,-14.102 v -93.965 c 0,-1.882 0.22,-3.769 0.67,-5.644 0.23,-2.2345 1.01,-4.1798 2.37,-5.8205 1.57,-1.414 4.1,-2.7617 7.58,-4.0507 3.04,-1.1836 7.42,-1.7696 13.15,-1.7696 0.45,-0.2226 0.67,-1.8945 0.67,-5 0,-3.2109 -0.34,-4.8242 -1.02,-4.8242 -15.2,0.4609 -27.37,1.0352 -36.51,1.7305 -6.29,0 -12.63,-0.2383 -19.03,-0.6953 -6.28,-0.461 -12.57,-0.8008 -18.85,-1.0352 -2.41,0.2344 -3.49,1.0352 -3.26,2.4102 v 3.2734 c 0,2.0703 0.45,3.3398 1.36,3.8008 0.79,0.2226 2.32,0.3398 4.59,0.3398 7.7,-0.2344 13.13,1.0039 16.31,3.7031 3.05,2.3516 4.58,7.5277 4.58,15.5157 v 91.68"
         style="fill:#231f20;fill-opacity:1;fill-rule:nonzero;stroke:none"
         id="path48" />
      <path
         d="m 2931.66,195.762 h -8.65 c -1.81,8.437 -5.01,15.996 -9.63,22.676 -4.61,6.562 -11.54,9.96 -20.76,10.195 -8.1,0 -14.8,-1.934 -20.09,-5.801 -5.51,-4.09 -8.27,-10.477 -8.27,-19.141 0,-3.281 1.19,-6.375 3.58,-9.304 2.04,-2.922 4.83,-5.676 8.35,-8.254 3.41,-2.461 7.22,-4.973 11.43,-7.547 4.19,-2.461 8.63,-5.098 13.29,-7.902 9.77,-5.274 18.3,-11.414 25.57,-18.438 7.16,-7.137 10.85,-16.219 11.08,-27.215 -0.23,-15.578 -6.04,-27.8044 -17.42,-36.7029 -10.93,-9.1289 -23.91,-13.8164 -38.93,-14.0508 -11.62,0.2344 -21.87,2.2852 -30.74,6.1524 -8.88,3.6328 -13.67,6.9726 -14.35,10.0117 l -1.66,32.8596 9.75,1.054 c 1.2,-1.992 2.03,-4.277 2.47,-6.855 2.25,-7.734 6.66,-14.707 13.21,-20.918 6.43,-6.6797 13.59,-10.1367 21.49,-10.3711 18.63,0.2344 28.23,10.1954 28.79,29.8941 -0.34,6.211 -3.24,12.071 -8.73,17.579 -5.48,5.269 -10.74,9.14 -15.77,11.601 -4.81,2.813 -9.85,5.801 -15.11,8.965 -5.26,2.813 -10.18,6.152 -14.76,10.02 -4.59,4.097 -8.29,8.671 -11.09,13.71 -2.91,5.04 -4.36,10.899 -4.36,17.579 0.23,15.117 5.75,26.433 16.58,33.933 10.38,7.383 22.39,11.074 36.05,11.074 14.09,0 27.74,-3.742 40.94,-11.218 l -2.26,-33.586"
         style="fill:#231f20;fill-opacity:1;fill-rule:nonzero;stroke:none"
         id="path50" />
      <path
         d="m 2984.19,207.324 c 0,5.762 -1.26,9.231 -3.78,10.403 -2.86,0.933 -7.2,1.414 -13.03,1.414 -1.6,0 -2.98,0.234 -4.12,0.695 -1.48,0.82 -2.23,2.156 -2.23,4.031 0,1.867 0.87,3.555 2.61,5.078 1.39,1.399 3.01,2.688 4.86,3.848 6.5,4.785 13.62,10.508 21.38,17.156 7.65,6.543 13.97,12.551 18.95,18.039 3.01,0 4.53,-1.347 4.53,-4.043 -0.24,-9.609 -0.59,-19.043 -1.06,-28.3 h 43.95 c 2.16,0 3.46,-0.411 3.91,-1.219 0.23,-0.93 0.35,-3.184 0.35,-6.77 0,-3.242 -0.12,-5.332 -0.35,-6.258 -0.68,-1.269 -1.87,-1.906 -3.58,-1.906 h -45.01 V 124.98 c -0.23,-7.996 1.3,-14.871 4.61,-20.632 2.95,-6.2308 8.63,-9.348 17.04,-9.348 6.03,0 11.14,1.8242 15.35,5.469 4.2,3.293 7.33,7.59 9.38,12.871 l 5.96,-4.902 c -2.76,-9.8169 -7.81,-17.9888 -15.15,-24.52 -7,-6.1914 -15.9,-9.4063 -26.69,-9.6407 -9.87,0 -18.61,2.7461 -26.17,8.2227 -7.58,5.4805 -11.49,13.5859 -11.71,24.316 v 100.508"
         style="fill:#231f20;fill-opacity:1;fill-rule:nonzero;stroke:none"
         id="path52" />
      <path
         d="m 3094.2,327.316 c 0,5.946 1.99,10.719 5.96,14.336 3.75,3.731 8.3,5.594 13.64,5.594 5.79,0 10.45,-1.863 13.97,-5.594 3.63,-3.617 5.45,-8.39 5.45,-14.336 0,-5.48 -1.82,-10.148 -5.45,-13.996 -3.52,-4.082 -8.18,-6.113 -13.97,-6.113 -5.34,0 -9.89,2.031 -13.64,6.113 -3.97,3.848 -5.96,8.516 -5.96,13.996 z m 33.75,-220.839 c 0,-1.887 0.23,-3.762 0.68,-5.649 0.24,-2.2225 1.04,-4.1678 2.4,-5.8085 1.6,-1.414 4.15,-2.7617 7.7,-4.0507 3.07,-1.1836 7.52,-1.7696 13.33,-1.7696 0.46,-0.2226 0.68,-1.8945 0.68,-5 0,-3.2109 -0.34,-4.8242 -1.02,-4.8242 -15.28,0.4609 -27.49,1.0352 -36.68,1.7305 -6.31,0 -12.68,-0.2383 -19.1,-0.6953 -6.32,-0.461 -12.64,-0.8008 -18.95,-1.0352 -2.42,0.2344 -3.51,1.0352 -3.27,2.4102 v 3.2734 c 0,2.0703 0.45,3.3398 1.36,3.8008 0.79,0.2226 2.32,0.3398 4.59,0.3398 7.7,-0.2344 13.13,0.9961 16.3,3.7031 3.06,2.3399 4.59,7.5077 4.59,15.4887 v 74.129 c 0,11.14 -0.45,18.359 -1.36,21.652 -1.47,3.172 -5.55,5.926 -12.23,8.277 -2.49,1.293 -4.7,2.406 -6.62,3.344 -2.27,0.937 -3.4,2.109 -3.4,3.523 -0.7,1.993 5.29,5.274 17.98,9.856 l 25.94,9.687 c 1.61,0.907 3.34,1.473 5.18,1.707 1.5,0 2.37,-0.586 2.6,-1.757 0,-1.407 0,-2.754 0,-4.032 -0.23,-17.218 -0.47,-34.601 -0.7,-52.16 v -76.14"
         style="fill:#231f20;fill-opacity:1;fill-rule:nonzero;stroke:none"
         id="path54" />
      <path
         d="m 3189.69,207.324 c 0,5.762 -1.26,9.231 -3.78,10.403 -2.86,0.933 -7.2,1.414 -13.03,1.414 -1.6,0 -2.98,0.234 -4.12,0.695 -1.49,0.82 -2.23,2.156 -2.23,4.031 0,1.867 0.87,3.555 2.61,5.078 1.39,1.399 3.01,2.688 4.86,3.848 6.5,4.785 13.62,10.508 21.38,17.156 7.65,6.543 13.96,12.551 18.94,18.039 3.02,0 4.54,-1.347 4.54,-4.043 -0.24,-9.609 -0.59,-19.043 -1.06,-28.3 h 43.95 c 2.15,0 3.46,-0.411 3.91,-1.219 0.23,-0.93 0.34,-3.184 0.34,-6.77 0,-3.242 -0.11,-5.332 -0.34,-6.258 -0.68,-1.269 -1.87,-1.906 -3.58,-1.906 h -45.01 V 124.98 c -0.24,-7.996 1.3,-14.871 4.61,-20.632 2.95,-6.2308 8.63,-9.348 17.04,-9.348 6.02,0 11.14,1.8242 15.35,5.469 4.2,3.293 7.32,7.59 9.38,12.871 l 5.96,-4.902 c -2.76,-9.8169 -7.81,-17.9888 -15.15,-24.52 -7.01,-6.1914 -15.9,-9.4063 -26.69,-9.6407 -9.88,0 -18.61,2.7461 -26.18,8.2227 -7.57,5.4805 -11.48,13.5859 -11.7,24.316 v 100.508"
         style="fill:#231f20;fill-opacity:1;fill-rule:nonzero;stroke:none"
         id="path56" />
      <path
         d="m 3302.72,201.035 c 0,5.039 -0.46,9.141 -1.37,12.305 -0.91,2.812 -2.4,4.805 -4.46,5.976 -3.77,2.461 -9.42,3.575 -16.96,3.34 -2.97,0 -4.69,0.469 -5.15,1.399 v 6.148 c -0.23,1.633 0.58,2.453 2.43,2.453 9.95,1.172 20,2.754 30.18,4.746 10.4,1.875 16.71,2.93 18.91,3.164 3,-0.234 4.51,-2.871 4.51,-7.918 -0.24,-4.347 -0.47,-9.16 -0.7,-14.433 v -83.969 c -0.71,-24.519 10.79,-36.7851 34.47,-36.7851 7.51,0 14.63,2.0625 21.36,6.1601 6.62,3.879 12.33,8.344 17.15,13.391 v 83.984 c 0,5.051 -0.46,9.152 -1.36,12.324 -0.91,2.825 -2.45,4.817 -4.61,5.989 -3.64,2.461 -9.21,3.582 -16.72,3.347 -2.95,0 -4.72,0.469 -5.28,1.399 v 6.148 c -0.24,1.633 0.62,2.453 2.59,2.453 9.92,1.172 19.95,2.754 30.1,4.746 10.38,1.875 16.61,2.93 18.69,3.164 3.12,-0.234 4.68,-2.871 4.68,-7.918 -0.23,-4.347 -0.47,-9.152 -0.7,-14.433 v -94.336 c -0.47,-16.66 1.52,-24.8751 5.95,-24.6407 3.98,0 7.55,0.5273 10.74,1.5817 3.29,0.703 5.15,1.055 5.61,1.055 0.68,-0.234 1.02,-1.551 1.02,-3.9648 0,-2.9883 -0.46,-4.7149 -1.38,-5.1758 -5.65,-1.7578 -14.54,-5.1563 -26.65,-10.1953 -5.42,-2.1094 -10.26,-3.9258 -14.53,-5.4493 -4.5,-1.875 -6.98,-2.8125 -7.44,-2.8125 -1.17,0.7032 -1.75,2.9688 -1.75,6.8165 0,2.9101 0.23,6.582 0.7,11.0156 v 13.2816 c -6.46,-7.1097 -14.12,-14.0433 -22.96,-20.8012 -8.85,-6.6406 -18.38,-10.0781 -28.58,-10.3125 -14.18,0 -25.69,4.0899 -34.54,12.2657 -9.3,7.832 -13.95,20.273 -13.95,37.336 v 77.156"
         style="fill:#231f20;fill-opacity:1;fill-rule:nonzero;stroke:none"
         id="path58" />
      <path
         d="m 3495.39,207.324 c 0,5.762 -1.26,9.231 -3.78,10.403 -2.86,0.933 -7.2,1.414 -13.03,1.414 -1.6,0 -2.98,0.234 -4.12,0.695 -1.48,0.82 -2.23,2.156 -2.23,4.031 0,1.867 0.87,3.555 2.61,5.078 1.39,1.399 3.01,2.688 4.87,3.848 6.49,4.785 13.61,10.508 21.37,17.156 7.65,6.543 13.97,12.551 18.95,18.039 3.02,0 4.53,-1.347 4.53,-4.043 -0.24,-9.609 -0.59,-19.043 -1.06,-28.3 h 43.95 c 2.16,0 3.47,-0.411 3.92,-1.219 0.22,-0.93 0.34,-3.184 0.34,-6.77 0,-3.242 -0.12,-5.332 -0.34,-6.258 -0.69,-1.269 -1.88,-1.906 -3.59,-1.906 h -45.01 V 124.98 c -0.23,-7.996 1.3,-14.871 4.61,-20.632 2.95,-6.2308 8.63,-9.348 17.04,-9.348 6.03,0 11.14,1.8242 15.35,5.469 4.2,3.293 7.33,7.59 9.38,12.871 l 5.97,-4.902 c -2.77,-9.8169 -7.82,-17.9888 -15.16,-24.52 -7,-6.1914 -15.9,-9.4063 -26.69,-9.6407 -9.87,0 -18.6,2.7461 -26.17,8.2227 -7.58,5.4805 -11.49,13.5859 -11.71,24.316 v 100.508"
         style="fill:#231f20;fill-opacity:1;fill-rule:nonzero;stroke:none"
         id="path60" />
      <path
         d="m 3680.32,185.352 c 2.6,0 4.91,1.406 6.95,4.226 1.92,2.699 2.88,5.625 2.88,8.789 -0.22,9.035 -3.05,16.371 -8.48,21.996 -5.3,5.504 -12.43,8.27 -21.36,8.27 -10.9,-0.235 -19.8,-5.156 -26.72,-14.766 -6.91,-9.375 -11.37,-19.453 -13.36,-30.234 z m -60.36,-9.825 c -0.46,-5.058 -0.68,-10.105 -0.68,-15.156 0,-16.211 5.32,-30.535 15.96,-43 9.95,-13.035 22.92,-19.6757 38.88,-19.9101 6.56,0 12.63,1.5938 18.17,4.7581 5.77,3.054 12.84,8.582 21.22,16.57 l 6.29,-4.734 c -7.07,-11.684 -15.85,-21.0862 -26.34,-28.2152 -10.48,-7.4726 -22.74,-11.3281 -36.76,-11.5625 -18.24,0.4688 -33.4,8.1446 -45.49,23.0274 -12.65,14.4143 -19.09,31.8163 -19.32,52.2073 0,22.617 6.66,43.242 19.98,61.875 12.86,18.984 30.79,28.711 53.79,29.179 16.17,-0.234 29.04,-5.39 38.6,-15.468 9.57,-10.078 14.46,-22.91 14.68,-38.496 v -11.075 h -98.98"
         style="fill:#231f20;fill-opacity:1;fill-rule:nonzero;stroke:none"
         id="path62" />
      <g
         id="g64"
         transform="scale(10)" />
      <path
         d="m 3427.44,626.754 -43.56,112.254 h -0.82 l -37.23,-112.254 z m -86.78,-15.348 -17.25,-55.707 c -3.17,-10.234 -4.69,-19.23 -4.69,-25.539 0,-12.941 18.42,-15.687 29.07,-15.687 3.47,0 4.31,-2.344 4.31,-7.469 0,-3.906 -0.44,-5.527 -3.19,-5.527 -8.99,0 -37.66,2.019 -48.28,2.019 -10.55,0 -27.06,-2.019 -38.87,-2.019 -7.82,0 -7.82,1.238 -7.82,6.328 v 4.324 c 0,1.945 3.49,2.726 12.94,3.527 20.43,1.942 23.2,5.867 30.69,27.504 l 77.68,226.059 c 7.81,6.652 16.07,15.742 25.84,18.867 l 98.58,-248.492 c 6.65,-16.508 13.75,-24.739 36.5,-24.739 4.31,0 5.11,-4.726 5.11,-9.015 0,-4.363 -2.71,-4.363 -7.43,-4.363 -6.37,0 -31.44,2.019 -46.78,2.019 -15.69,0 -31.41,-0.781 -47.09,-2.019 -5.85,0 -6.25,1.238 -6.25,6.707 0,4.308 2.34,6.289 7.85,6.289 5.93,0 25.12,1.183 25.12,10.621 0,3.125 -1.57,9.414 -7.07,23.152 l -25.12,63.16 h -93.85"
         style="fill:#231f20;fill-opacity:1;fill-rule:nonzero;stroke:none"
         id="path66" />
      <path
         d="m 2966.66,605.344 c 0,49.297 -33.7,99.433 -86.51,99.433 -54.26,0 -80.38,-42.527 -80.38,-92.047 0,-50.195 30.51,-102.121 85.07,-102.121 53.97,0 81.82,44.27 81.82,94.735 m -198.24,-2.309 c 0,61.297 52.46,111.438 113.22,111.438 61.56,0 116.44,-42.227 116.44,-103.223 0,-59.012 -56.91,-112.078 -115.32,-112.078 -61.25,0 -114.34,39.844 -114.34,103.863"
         style="fill:#231f20;fill-opacity:1;fill-rule:nonzero;stroke:none"
         id="path68" />
      <path
         d="m 3033.95,677.48 c 0,17.872 -2.9,21.739 -20.18,21.739 h -5.01 c -5.26,-0.34 -7.6,0.582 -7.6,2.363 0,2.344 0,7.328 3.27,7.328 h 120.21 c 9.94,0 19.93,1.445 30.21,1.445 1.72,0 4.1,-0.3 4.1,-2.664 l 1.18,-33.089 c 0,-2.067 0.33,-4.153 0.33,-6.192 0,-1.183 -2.37,-1.726 -5.33,-1.726 h -4.39 c -0.61,3.488 -1.16,7.011 -2.02,10.214 l -2.65,9.098 c -3.22,11.481 -11.74,13.223 -20.85,13.223 h -41.08 c -21.72,0 -23.76,-6.715 -23.76,-28.188 V 619.43 h 43.45 c 25.17,0 31.36,7.031 31.36,23.16 2.91,0.637 5.87,1.504 7.92,1.504 1.16,0 1.78,-0.606 1.78,-2.086 0,-2.305 -1.18,-6.735 -1.18,-28.145 0,-8.515 1.18,-23.761 1.18,-30.211 0,-2.64 -2.04,-3.785 -5.28,-3.785 -2.38,0 -3.23,2.606 -4.42,7.313 -2.04,12.039 -7.91,22.597 -32.83,22.597 h -41.98 v -76.882 c 0,-11.418 1.52,-17.586 16.48,-18.774 l 15.23,-1.18 c 1.44,0 2.02,-1.785 2.02,-3.765 0,-2.383 0,-5.871 -3.18,-5.871 -22.04,0 -31.41,1.441 -45.2,1.441 -12.03,0 -33.71,-1.441 -41.62,-1.441 -2.38,0 -2.38,2.925 -2.38,5.211 0,1.781 0.3,4.425 1.52,4.425 l 12.92,0.883 c 15.48,1.18 17.78,4.688 17.78,21.973 V 677.48"
         style="fill:#231f20;fill-opacity:1;fill-rule:nonzero;stroke:none"
         id="path70" />
      <path
         d="m 754.086,735.023 c 0,30.95 -18.809,30.95 -40.363,30.95 l -1.942,1.601 v 6.649 c 0,4.289 2.742,4.687 7.051,4.687 10.176,0 35.254,-1.98 53.68,-1.98 19.551,0 39.504,1.98 59.097,1.98 l 1.184,-1.16 v -10.176 l -1.965,-1.601 h -4.668 c -25.461,0 -36.84,-2.707 -36.84,-32.129 V 620.285 c 0,-56.394 11,-100.683 78.325,-100.683 70.132,0 92.808,33.714 92.808,99.921 v 101.821 c 0,44.629 0,41.523 -34.433,44.629 l -1.582,3.144 v 7.449 l 1.199,2.344 c 7.031,0 14.883,-1.98 44.23,-1.98 16.488,0 37.223,1.98 49.763,1.98 l 1.56,-2.344 v -8.23 l -2.38,-2.363 c -28.529,0 -38.767,-1.582 -38.767,-21.133 V 605.039 c 0,-71.734 -41.887,-108.113 -113.16,-108.113 -56.785,0 -112.797,19.953 -112.797,85.355 v 152.742"
         style="fill:#231f20;fill-opacity:1;fill-rule:nonzero;stroke:none"
         id="path72" />
      <path
         d="m 1043.55,673.977 c 0,5.886 -0.28,7.347 -1.46,9.671 -2.62,5.028 -15.54,15.567 -20.51,15.883 l -15.59,0.864 c -1.16,0 -1.46,2.945 -1.46,5.25 0,1.543 0,3.843 1.46,3.843 9.14,0 16.15,0.602 23.44,0.602 13.54,0 34.98,-1.184 40.25,-1.785 l 88.94,-107.407 c 13.48,-16.406 26.7,-31.687 47.83,-52.847 h 1.17 v 129.148 c 0,19.367 -7.04,22.332 -16.45,22.598 l -12.6,0.598 c -1.2,0 -1.78,2.945 -1.78,4.949 0,1.844 0.88,4.746 2.66,4.746 6.43,0 21.72,-1.481 36.08,-1.481 13.22,0 27.32,1.481 35.51,1.481 1.49,0 1.77,-1.184 1.77,-2.383 v -5.547 c 0,-1.445 -0.6,-1.765 -2.63,-1.765 h -7.63 c -20.23,0 -20.23,-10.278 -20.23,-35.235 V 495.23 h -7.07 L 1056.76,676.301 V 541.582 c 0,-25.199 3.54,-28.105 28.76,-29.023 1.16,0 2.07,-2.649 2.07,-4.95 0,-2.382 -0.31,-4.726 -1.19,-4.726 -5.59,0 -24.34,1.465 -36.66,1.465 -14.4,0 -20.89,-1.465 -34.33,-1.465 -1.8,0 -2.1,2.043 -2.1,5.867 0,2.648 0.3,3.809 3.86,3.809 12.26,0 26.38,2.925 26.38,17.906 v 143.512"
         style="fill:#231f20;fill-opacity:1;fill-rule:nonzero;stroke:none"
         id="path74" />
      <path
         d="m 1329.79,557.18 c 0,-42.828 0.89,-43.125 29.65,-44.61 l 1.48,-2.086 v -5.546 c 0,-1.762 -4.42,-2.067 -7.05,-2.067 -4.13,0 -23.77,1.484 -35.8,1.484 -14.08,0 -28.48,-1.484 -43.73,-1.484 -1.15,0.625 -1.44,2.367 -1.44,5.313 0.29,3.785 0.86,4.386 9.36,4.386 20.25,0 21.13,4.387 21.13,26.723 v 140.281 c 0,16.707 -4.96,20.832 -29.63,20.832 l -0.86,1.446 -0.58,4.726 c 0.29,3.203 2.93,3.524 4.67,3.524 7.91,0 17.31,-1.485 37.26,-1.485 14.66,0 32.31,1.485 44.03,1.485 l 1.46,-2.102 v -5.25 l -1.16,-1.781 -7.93,-0.563 c -11.74,-0.859 -20.86,-2.082 -20.86,-15.582 V 557.18"
         style="fill:#231f20;fill-opacity:1;fill-rule:nonzero;stroke:none"
         id="path76" />
      <path
         d="m 1400.28,690.434 c -3.23,7.871 -14.95,9.976 -23.2,9.976 l -1.75,1.422 v 7.656 l 3.23,0.602 c 12.32,0 30.23,-1.485 36.7,-1.485 13.48,0 26.68,1.485 40.18,1.485 l 0.89,-0.906 -0.89,-8.231 -13.78,-1.164 c -4.7,-0.258 -9.97,-2.043 -9.97,-6.41 0,-2.363 1.48,-6.191 2.62,-8.832 l 33.75,-88.082 19.12,-43.649 c 2.04,-4.406 2.32,-5.324 3.2,-5.324 0.58,0 1.44,1.219 2.62,4.66 l 41.99,111.282 c 4.69,12.597 8.21,23.476 7.91,27 -0.3,4.968 -1.78,7.613 -10.26,8.453 l -15.26,1.523 -1.78,0.863 v 9.075 c 11.48,0 22.87,-1.743 34.35,-1.743 9.12,0 28.47,1.743 30.53,1.743 l 2.35,-1.164 v -6.75 l -2.63,-2.024 -9.13,-0.621 c -5.87,-0.258 -8.22,-3.203 -12.3,-13.5 -27.89,-67.187 -34.64,-88.34 -56.93,-144.969 l -14.99,-38.14 c -1.42,-4.125 -2.02,-4.391 -4.08,-4.391 -2.69,0 -3.25,0.883 -3.81,2.047 l -78.68,189.598"
         style="fill:#231f20;fill-opacity:1;fill-rule:nonzero;stroke:none"
         id="path78" />
      <path
         d="m 1629.86,680.16 c 0,19.051 -14.38,21.113 -31.41,21.113 -1.18,0 -1.18,1.485 -1.18,2.668 v 3.243 c 0,2.601 5.01,2.906 15.26,2.906 11.76,0 24.94,-1.485 37.28,-1.485 11.72,0 23.5,1.485 35.22,1.485 h 61.92 c 2.34,0 2.64,-2.668 2.64,-5.871 v -35.817 c 0,-1.16 -0.58,-2.324 -2.04,-2.324 -2.35,0 -7.03,-0.34 -7.35,3.203 l -0.87,9.098 c -1.82,18.769 -14.7,22.012 -31.12,22.012 H 1678 c -16.47,0 -21.72,-3.543 -21.72,-25.84 v -53.106 c 0,-0.859 1.75,-2.343 2.35,-2.343 l 34.61,1.183 c 17.59,0.578 22.64,6.168 27.03,21.738 0.58,1.7 1.46,2.325 4.64,2.325 2.12,0 3.59,-0.305 3.59,-1.789 0,-6.149 -1.76,-19.649 -1.76,-29.344 0,-15.809 1.76,-24.375 1.76,-29.289 0,-1.801 -2.96,-3.582 -4.73,-3.582 -2.34,0 -4.41,0.902 -4.99,3.847 -1.46,7.887 -1.46,13.539 -2.9,17.586 -1.5,4.383 -5.05,6.469 -13.83,6.731 l -41.66,0.922 c -4.11,0 -4.11,-1.504 -4.11,-3.528 v -69.871 c 0,-21.133 15.57,-21.676 35.8,-21.676 h 15.85 c 15.54,0 26.4,0.262 33.77,4.649 6.45,3.867 15.52,21.758 18.73,29.047 3.85,0 8.86,-0.863 8.86,-2.903 0,-0.925 -0.87,-3.269 -1.49,-4.687 l -8.21,-29.648 c -2.37,-7.93 -3.83,-7.93 -7.65,-7.93 -31.67,0 -62.81,1.457 -105.35,1.457 -9.68,0 -34.34,-1.457 -49.32,-1.457 -0.86,0 -1.76,2.961 -1.76,4.726 0,2.301 0.6,4.946 1.76,4.946 25.6,1.179 32.59,3.828 32.59,30.828 V 680.16"
         style="fill:#231f20;fill-opacity:1;fill-rule:nonzero;stroke:none"
         id="path80" />
      <path
         d="m 1849.77,615.852 c 3.85,-0.282 7.31,-0.563 11.14,-0.563 23.5,0 52.84,8.211 52.84,42.852 0,25.839 -17.62,42.586 -43.44,42.586 -19.96,0 -20.54,-4.77 -20.54,-13.543 z m -26.42,62.515 c 0,14.684 -0.6,22.039 -19.07,22.039 h -12.02 c -1.78,0 -2.04,3.223 -2.04,5.547 0,1.465 0.86,4.145 2.04,4.145 16.99,0 34.33,-0.918 51.36,-0.918 13.46,0 26.69,0.918 40.19,0.918 29.94,0 59.29,-19.969 59.29,-50.797 0,-26.684 -24.36,-44.594 -47.25,-48.117 v -0.582 c 11.43,-2.68 23.45,-24.098 26.42,-28.766 l 32.27,-49.316 c 10.27,-15.547 17.04,-18.473 34.61,-19.391 l 1.79,-1.723 v -5.57 c 0,-2.66 -2.09,-2.945 -3.23,-2.945 -6.13,0 -15.27,0.839 -19.67,0.839 -7.03,0 -14.08,-0.839 -21.13,-0.839 -6.74,0 -19.95,19.672 -37.28,50.476 -19.05,33.758 -30.23,52.231 -49.56,52.231 -2.39,0 -5.87,0 -10.3,-0.563 v -71.972 c 0,-10.5 0,-20.493 14.69,-20.493 11.13,0 16.12,0 16.12,-2.343 0,-5.575 -0.86,-7.336 -5.27,-7.336 -15.24,0 -27.88,1.464 -40.52,1.464 -4.97,0 -37.54,-1.464 -41.65,-1.464 -1.78,0 -2.34,3.808 -2.34,6.172 0,2.601 1.16,3.203 7.07,3.507 20.23,0.918 25.48,3.821 25.48,24.075 v 141.722"
         style="fill:#231f20;fill-opacity:1;fill-rule:nonzero;stroke:none"
         id="path82" />
      <path
         d="m 2037.41,609.723 c -21.14,12.621 -29.65,24.359 -29.65,47.234 0,36.66 29.95,57.215 69.53,57.215 11.18,0 27.02,-3.828 36.98,-8.215 l 2.04,-36.68 v -1.461 c 0,-1.484 -2.9,-2.082 -7.03,-2.082 -3.82,0 -4.38,1.782 -4.67,4.727 -2.08,19.652 -16.14,32.289 -37.01,32.289 -19.96,0 -35.46,-14.062 -35.46,-32.91 0,-21.094 12.84,-29.328 42.2,-44.856 29.07,-15.261 54.33,-28.761 54.33,-65.461 0,-39.906 -36.11,-60.734 -72.77,-60.734 -12.04,0 -32.02,3.844 -43.17,8.473 -2.33,1.218 -3.21,5.008 -4.07,11.414 l -3.54,27.648 c 0,1.742 5.86,1.742 7.61,1.742 0.88,0 1.76,-0.582 2.36,-2.605 6.75,-22.336 22,-35.234 45.49,-35.234 20.54,0 40.19,17.89 40.19,37.839 0,19.114 -10.86,30.567 -26.12,39.645 l -37.24,22.012"
         style="fill:#231f20;fill-opacity:1;fill-rule:nonzero;stroke:none"
         id="path84" />
      <path
         d="m 2210.62,557.18 c 0,-42.828 0.86,-43.125 29.63,-44.61 l 1.5,-2.086 v -5.546 c 0,-1.762 -4.43,-2.067 -7.11,-2.067 -4.07,0 -23.72,1.484 -35.78,1.484 -14.1,0 -28.43,-1.484 -43.71,-1.484 -1.16,0.625 -1.46,2.367 -1.46,5.313 0.3,3.785 0.88,4.386 9.37,4.386 20.3,0 21.14,4.387 21.14,26.723 v 140.281 c 0,16.707 -4.99,20.832 -29.63,20.832 l -0.88,1.446 -0.58,4.726 c 0.3,3.203 2.94,3.524 4.69,3.524 7.91,0 17.3,-1.485 37.25,-1.485 14.71,0 32.3,1.485 44.05,1.485 l 1.46,-2.102 v -5.25 l -1.16,-1.781 -7.97,-0.563 c -11.72,-0.859 -20.81,-2.082 -20.81,-15.582 V 557.18"
         style="fill:#231f20;fill-opacity:1;fill-rule:nonzero;stroke:none"
         id="path86" />
      <path
         d="m 2366.48,534.242 c 0,-21.691 14.68,-21.691 32.89,-21.691 l 1.76,-1.461 v -4.688 c 0,-3.527 -1.46,-3.527 -6.23,-3.527 -5.84,0 -20.21,1.48 -40.74,1.48 -16.13,0 -41.35,-1.48 -48.44,-1.48 -0.6,2.063 -1.18,3.527 -1.18,5.309 0,0.859 0.32,2.644 1.18,3.226 l 2.98,1.141 h 3.51 c 26.7,0 27.89,9.094 27.89,33.476 v 139.075 l -0.89,13.503 h -39.32 c -22.31,0 -25.86,-14.058 -31.41,-32.871 -0.6,-1.746 -1.76,-2.605 -3.55,-2.605 -4.08,0 -6.76,1.184 -6.76,2.945 0,4.965 3.54,32.231 3.54,55.449 0,1.165 4.15,1.165 8.2,1.165 9.41,-12.606 12.35,-12.606 25,-12.606 h 109.13 c 20.55,0 26.42,6.172 33.77,15.266 2.02,0 8.77,0 8.77,-2.66 0,-2.344 -5.84,-26.403 -6.45,-47.559 0,-3.203 -0.9,-9.395 -2.32,-9.395 -2.65,0 -9.39,1.504 -9.39,3.008 l -1.19,14.641 c -1.14,14.922 -8.21,15.222 -20.21,15.222 h -40.54 V 534.242"
         style="fill:#231f20;fill-opacity:1;fill-rule:nonzero;stroke:none"
         id="path88" />
      <path
         d="m 2547.19,596.191 c 0,2.985 -0.28,6.793 -3.52,11.539 l -66.21,89.54 c -1.76,2.668 -4.41,4.128 -11.26,4.41 l -11.19,0.64 -1.76,0.883 v 7.672 l 1.76,0.879 h 3.54 c 5.01,0 36.66,-1.461 42.25,-1.461 7.39,0 19.25,1.461 28.96,1.461 6.49,0 9.46,0 9.46,-1.801 v -3.547 c 0,-2.926 -0.9,-4.383 -1.79,-4.383 l -17.12,-0.625 c -4.17,0 -6.81,-1.746 -6.81,-5.007 0,-1.18 1.74,-4.145 4.75,-7.953 l 42.24,-58.852 c 2.35,-3.246 5.01,-6.191 7.99,-8.852 5.61,5.325 31.64,41.102 44.34,59.672 4.72,6.832 7.39,12.442 7.39,14.805 0,4.105 -2.38,5.887 -10.96,6.187 l -14.78,0.625 c 0.32,0 0,4.383 0,5.586 0,1.504 0.32,3.266 1.78,4.145 11.52,-1.184 25.7,-1.461 38.4,-1.461 8.61,0 21.57,1.461 25.42,1.461 l 1.8,-1.184 v -6.808 l -1.18,-1.184 -10.96,-0.555 c -9.45,-0.625 -21.27,-20.675 -26.88,-28.371 l -49.03,-67.125 v -69.41 c 0,-6.207 0.27,-11.582 0.88,-13.344 2.34,-7.031 10.03,-10.957 20.97,-10.957 h 7.99 l 2.65,-1.16 v -8.254 l -1.49,-0.297 h -4.45 c -12.99,0 -25.67,1.52 -38.72,1.52 -13.26,0 -26.88,-1.52 -40.14,-1.52 h -4.16 l -2.37,0.602 v 5.023 c 0,1.743 0.58,3.829 2.97,4.086 l 13.86,1.524 c 8.57,0.887 15.38,3.828 15.38,18.609 v 63.242"
         style="fill:#231f20;fill-opacity:1;fill-rule:nonzero;stroke:none"
         id="path90" />
      <path
         d="m 3753.12,709.574 c 9.13,0 18.51,-0.859 27.96,-0.859 7.39,0 15.01,0.859 22.37,0.859 4.42,0 5.3,-1.14 5.3,-2.062 v -4.688 c 0,-2.062 -0.88,-3.527 -2.08,-3.527 -2.06,0 -5.28,0.601 -8.84,0.601 -17.11,0 -17.11,-8.55 -17.11,-27.699 0,-16.789 3.27,-126.886 3.27,-143.086 0,-8.215 4.14,-17.672 16.81,-17.672 11.78,0 13.2,-0.601 13.2,-3.265 0,-3.528 -1.73,-6.473 -2.61,-6.473 -15.62,0 -27.96,1.504 -40.34,1.504 -12.36,0 -25.02,-1.504 -37.68,-1.504 -2.08,0 -2.35,1.203 -2.35,2.945 v 2.969 c 0,2.946 2.65,3.824 16.19,3.824 5.91,0 11.18,7.051 11.18,17.368 0,31.793 -1.15,100.402 -2.35,150.757 -1.18,0.282 -0.88,0.282 -0.88,0.282 -16.48,-33.871 -37.97,-83.032 -47.97,-109.25 l -27.75,-72.715 c -0.21,-0.867 -1.12,-1.746 -2.62,-1.746 -1.42,0 -2.64,1.48 -3.5,5.566 -1.75,7.414 -4.4,14.465 -7.39,21.496 l -55.64,135.477 c -2.1,5.008 -3.82,8.531 -4.96,8.531 -1.24,0 -1.24,-5.887 -1.24,-9.137 0,-23.273 -3.49,-112.152 -3.49,-126.617 0,-12.66 0,-20.012 25.92,-20.012 1.74,0 2.02,-1.461 2.02,-4.988 0,-1.18 -0.28,-4.75 -1.46,-4.75 -4.14,0 -18.55,1.504 -34.45,1.504 -16.75,0 -33.26,-1.504 -37.4,-1.504 -0.87,0 -1.78,0.926 -1.78,2.391 v 4.402 c 0,2.649 2.38,2.945 5.92,2.945 24.12,0 27.65,7.352 27.65,32.993 0,14.425 4.97,122.773 4.97,133.371 0,15.605 -7.64,22.093 -34.08,22.093 -0.9,0 -1.5,1.426 -1.5,3.227 v 3.828 c 0,1.481 0.9,2.621 2.39,2.621 11.17,0 21.78,-1.457 33.52,-1.457 7.36,0 15.01,1.457 22.4,1.457 2.08,0 4.15,-4.707 5.57,-8.535 l 63.62,-152.195 h 1.4 l 67.81,160.73"
         style="fill:#231f20;fill-opacity:1;fill-rule:nonzero;stroke:none"
         id="path92" />
      <path
         d="m 3859.6,608.898 c -21.27,12.68 -29.81,24.457 -29.81,47.375 0,36.836 30.03,57.434 69.78,57.434 11.21,0 27.1,-3.809 37.14,-8.238 l 2.06,-36.817 v -1.441 c 0,-1.504 -2.97,-2.063 -7.11,-2.063 -3.83,0 -4.38,1.743 -4.69,4.668 -2.05,19.731 -16.19,32.45 -37.1,32.45 -19.99,0 -35.61,-14.141 -35.61,-33.012 0,-21.191 12.95,-29.43 42.4,-45.031 29.19,-15.325 54.49,-28.848 54.49,-65.664 0,-40.063 -36.26,-60.938 -73.04,-60.938 -12.06,0 -32.14,3.824 -43.31,8.531 -2.32,1.164 -3.2,4.993 -4.13,11.481 l -3.52,27.664 c 0,1.766 5.9,1.766 7.65,1.766 0.96,0 1.78,-0.563 2.37,-2.629 6.78,-22.371 22.13,-35.313 45.65,-35.313 20.63,0 40.32,17.949 40.32,37.942 0,19.148 -10.86,30.628 -26.18,39.757 l -37.36,22.078"
         style="fill:#231f20;fill-opacity:1;fill-rule:nonzero;stroke:none"
         id="path94" />
      <path
         d="m 4074.03,527.93 c 0,-21.817 14.7,-21.817 32.97,-21.817 l 1.79,-1.461 v -4.707 c 0,-3.566 -1.49,-3.566 -6.23,-3.566 -5.87,0 -20.26,1.523 -40.89,1.523 -16.2,0 -41.54,-1.523 -48.58,-1.523 -0.64,2.101 -1.18,3.566 -1.18,5.312 0,0.918 0.32,2.661 1.18,3.258 l 2.96,1.164 h 3.53 c 26.79,0 27.97,9.157 27.97,33.575 V 679.27 l -0.88,13.523 h -39.45 c -22.39,0 -25.98,-14.125 -31.53,-32.953 -0.56,-1.805 -1.78,-2.668 -3.52,-2.668 -4.19,0 -6.73,1.183 -6.73,2.926 0,5.031 3.48,32.394 3.48,55.668 0,1.164 4.11,1.164 8.26,1.164 9.43,-12.68 12.33,-12.68 25,-12.68 h 109.51 c 20.61,0 26.54,6.211 33.87,15.324 2.1,0 8.83,0 8.83,-2.644 0,-2.364 -5.87,-26.481 -6.46,-47.696 0,-3.226 -0.93,-9.394 -2.37,-9.394 -2.66,0 -9.39,1.441 -9.39,2.926 l -1.16,14.718 c -1.22,15.008 -8.25,15.309 -20.35,15.309 h -40.63 V 527.93"
         style="fill:#231f20;fill-opacity:1;fill-rule:nonzero;stroke:none"
         id="path96" />
      <path
         d="m 4197.62,679.566 c 0,19.11 -14.45,21.196 -31.49,21.196 -1.18,0 -1.18,1.504 -1.18,2.64 v 3.25 c 0,2.645 5.01,2.922 15.3,2.922 11.74,0 25.02,-1.457 37.42,-1.457 11.76,0 23.52,1.457 35.28,1.457 h 62.18 c 2.3,0 2.62,-2.621 2.62,-5.867 v -35.918 c 0,-1.203 -0.62,-2.363 -2.09,-2.363 -2.36,0 -7.07,-0.278 -7.37,3.226 l -0.9,9.153 c -1.74,18.832 -14.68,22.093 -31.15,22.093 h -30.36 c -16.45,0 -21.78,-3.566 -21.78,-25.918 v -53.304 c 0,-0.879 1.79,-2.363 2.4,-2.363 l 34.7,1.179 c 17.65,0.602 22.69,6.172 27.08,21.817 0.6,1.742 1.5,2.363 4.77,2.363 2.05,0 3.46,-0.344 3.46,-1.801 0,-6.191 -1.72,-19.73 -1.72,-29.43 0,-15.925 1.72,-24.457 1.72,-29.449 0,-1.762 -2.9,-3.543 -4.69,-3.543 -2.36,0 -4.4,0.903 -5,3.848 -1.48,7.91 -1.48,13.519 -2.93,17.625 -1.52,4.43 -5.04,6.512 -13.87,6.812 l -41.79,0.84 c -4.13,0 -4.13,-1.441 -4.13,-3.484 v -70.11 c 0,-21.175 15.62,-21.777 35.94,-21.777 h 15.91 c 15.6,0 26.47,0.324 33.84,4.727 6.54,3.808 15.61,21.758 18.81,29.125 3.87,0 8.84,-0.879 8.84,-2.922 0,-0.899 -0.86,-3.223 -1.43,-4.727 l -8.27,-29.726 c -2.34,-7.977 -3.78,-7.977 -7.64,-7.977 -31.82,0 -63.03,1.504 -105.7,1.504 -9.69,0 -34.45,-1.504 -49.45,-1.504 -0.91,0 -1.79,2.945 -1.79,4.75 0,2.348 0.59,4.988 1.79,4.988 25.58,1.18 32.67,3.829 32.67,30.907 v 137.218"
         style="fill:#231f20;fill-opacity:1;fill-rule:nonzero;stroke:none"
         id="path98" />
      <path
         d="m 4408.92,615.094 c 3.83,-0.305 7.38,-0.621 11.19,-0.621 23.51,0 52.99,8.269 52.99,43.007 0,25.899 -17.64,42.688 -43.56,42.688 -20.06,0 -20.62,-4.707 -20.62,-13.523 z m -26.48,62.719 c 0,14.683 -0.62,22.074 -19.19,22.074 h -12.08 c -1.74,0 -2.04,3.222 -2.04,5.586 0,1.465 0.9,4.109 2.04,4.109 17.09,0 34.54,-0.859 51.56,-0.859 13.57,0 26.81,0.859 40.32,0.859 30.05,0 59.51,-20.031 59.51,-50.922 0,-26.781 -24.45,-44.73 -47.41,-48.293 v -0.582 c 11.49,-2.644 23.57,-24.14 26.49,-28.828 l 32.41,-49.496 c 10.25,-15.625 17.05,-18.551 34.74,-19.453 l 1.74,-1.742 v -5.606 c 0,-2.629 -2.05,-2.945 -3.21,-2.945 -6.23,0 -15.36,0.898 -19.77,0.898 -7.07,0 -14.12,-0.898 -21.17,-0.898 -6.79,0 -20.03,19.73 -37.4,50.64 -19.13,33.891 -30.35,52.442 -49.8,52.442 -2.31,0 -5.87,0 -10.26,-0.621 v -72.133 c 0,-10.598 0,-20.617 14.75,-20.617 11.13,0 16.18,0 16.18,-2.305 0,-5.605 -0.86,-7.406 -5.35,-7.406 -15.32,0 -27.92,1.5 -40.62,1.5 -4.97,0 -37.62,-1.5 -41.78,-1.5 -1.77,0 -2.37,3.82 -2.37,6.207 0,2.625 1.16,3.226 7.06,3.504 20.31,0.902 25.65,3.847 25.65,24.179 v 142.208"
         style="fill:#231f20;fill-opacity:1;fill-rule:nonzero;stroke:none"
         id="path100" />
      <path
         d="m 4620.17,545.813 c 0,-32.395 33.28,-32.395 46.2,-32.395 40.32,0 83.29,33.254 83.29,94.828 0,52.402 -28.23,78.309 -48.58,90.086 -14.1,6.172 -32.67,7.629 -45.33,7.629 -24.1,0 -35.58,-1.723 -35.58,-20.609 z m -26.56,131.328 c 0,11.175 -2.3,22.656 -13.22,22.656 -3.53,0 -12.92,-1.184 -18.54,-1.184 -1.22,0 -1.22,4.407 -1.22,5.891 0,1.762 0,2.641 5.03,3.801 19.78,4.152 66.83,7.375 92.13,7.375 16.22,0 31.55,-1.485 45.97,-5.27 40.01,-10.918 77.43,-46.551 77.43,-100.699 0,-73.016 -60.98,-106.027 -116.93,-106.027 -27.96,0 -42.69,1.199 -57.33,1.199 -14.76,0 -29.47,-0.86 -44.21,-1.199 -1.16,0 -1.46,2.644 -1.46,4.75 0,2.039 1.46,4.984 2.64,4.984 9.44,1.184 17.05,1.762 22.4,5.309 4.38,2.945 7.31,7.671 7.31,17.07 v 141.344"
         style="fill:#231f20;fill-opacity:1;fill-rule:nonzero;stroke:none"
         id="path102" />
      <path
         d="m 4898.6,595.637 -32.69,84.211 h -0.63 l -27.88,-84.211 z m -65.11,-11.461 -12.92,-41.809 c -2.4,-7.648 -3.52,-14.441 -3.52,-19.168 0,-9.672 13.84,-11.758 21.82,-11.758 2.59,0 3.2,-1.761 3.2,-5.566 0,-2.969 -0.32,-4.172 -2.36,-4.172 -6.79,0 -28.25,1.504 -36.23,1.504 -7.94,0 -20.31,-1.504 -29.14,-1.504 -5.87,0 -5.87,0.926 -5.87,4.75 v 3.227 c 0,1.465 2.66,2.082 9.69,2.644 15.33,1.481 17.38,4.426 22.96,20.61 l 58.29,169.589 c 5.87,4.989 12.08,11.778 19.46,14.161 l 73.87,-186.391 c 5.07,-12.344 10.36,-18.531 27.4,-18.531 3.28,0 3.83,-3.586 3.83,-6.789 0,-3.27 -2.02,-3.27 -5.56,-3.27 -4.69,0 -23.56,1.504 -35.06,1.504 -11.78,0 -23.56,-0.578 -35.35,-1.504 -4.4,0 -4.69,0.926 -4.69,5.051 0,3.226 1.76,4.687 5.87,4.687 4.42,0 18.88,0.883 18.88,7.973 0,2.324 -1.18,7.051 -5.33,17.348 l -18.81,47.414 h -70.43"
         style="fill:#231f20;fill-opacity:1;fill-rule:nonzero;stroke:none"
         id="path104" />
      <path
         d="m 5188.43,709.574 c 9.14,0 18.57,-0.859 27.98,-0.859 7.33,0 15.04,0.859 22.38,0.859 4.4,0 5.26,-1.14 5.26,-2.062 v -4.688 c 0,-2.062 -0.86,-3.527 -2,-3.527 -2.08,0 -5.32,0.601 -8.87,0.601 -17.05,0 -17.05,-8.55 -17.05,-27.699 0,-16.789 3.22,-126.886 3.22,-143.086 0,-8.215 4.13,-17.672 16.79,-17.672 11.74,0 13.28,-0.601 13.28,-3.265 0,-3.528 -1.79,-6.473 -2.66,-6.473 -15.67,0 -27.96,1.504 -40.37,1.504 -12.35,0 -25,-1.504 -37.71,-1.504 -2.05,0 -2.32,1.203 -2.32,2.945 v 2.969 c 0,2.946 2.63,3.824 16.16,3.824 5.91,0 11.18,7.051 11.18,17.368 0,31.793 -1.12,100.402 -2.31,150.757 -1.18,0.282 -0.92,0.282 -0.92,0.282 -16.49,-33.871 -37.98,-83.032 -47.95,-109.25 l -27.67,-72.715 c -0.32,-0.867 -1.22,-1.746 -2.64,-1.746 -1.51,0 -2.67,1.48 -3.57,5.566 -1.76,7.414 -4.4,14.465 -7.37,21.496 l -55.63,135.477 c -2.06,5.008 -3.81,8.531 -4.99,8.531 -1.18,0 -1.18,-5.887 -1.18,-9.137 0,-23.273 -3.56,-112.152 -3.56,-126.617 0,-12.66 0,-20.012 25.91,-20.012 1.79,0 2.05,-1.461 2.05,-4.988 0,-1.18 -0.26,-4.75 -1.48,-4.75 -4.07,0 -18.51,1.504 -34.43,1.504 -16.79,0 -33.28,-1.504 -37.37,-1.504 -0.88,0 -1.73,0.926 -1.73,2.391 v 4.402 c 0,2.649 2.29,2.945 5.82,2.945 24.18,0 27.7,7.352 27.7,32.993 0,14.425 5.01,122.773 5.01,133.371 0,15.605 -7.61,22.093 -34.19,22.093 -0.84,0 -1.48,1.426 -1.48,3.227 v 3.828 c 0,1.481 0.91,2.621 2.38,2.621 11.2,0 21.8,-1.457 33.63,-1.457 7.32,0 14.96,1.457 22.32,1.457 2.08,0 4.13,-4.707 5.6,-8.535 l 63.59,-152.195 h 1.48 l 67.71,160.73"
         style="fill:#231f20;fill-opacity:1;fill-rule:nonzero;stroke:none"
         id="path106" />
    </g>
  </g>
</svg>
